<?xml version="1.0" standalone="no"?><!DOCTYPE svg PUBLIC "-//W3C//DTD SVG 1.1//EN" "http://www.w3.org/Graphics/SVG/1.1/DTD/svg11.dtd"><svg t="1775221082475" class="icon" viewBox="0 0 1024 1024" version="1.1" xmlns="http://www.w3.org/2000/svg" p-id="3679" xmlns:xlink="http://www.w3.org/1999/xlink" width="200" height="200"><path d="M121.930003 857.360725l728.087477-728.442564 38.45994 38.473244-728.092593 728.44768-38.454824-38.47836z m444.293969-645.23549c0-48.15065-23.410176-65.697281-61.033051-44.754296-45.771463 25.475208-112.424512 75.948763-183.551457 131.61355v243.09662l-54.387701 54.41533V321.927013h-54.386678c-45.057195 0-81.58411 36.543288-81.58411 81.620949v217.657229c0 30.170137 16.402575 56.44864 40.728611 70.578452l-39.280632 39.304167c-33.837666-24.744567-55.836703-64.73435-55.836703-109.882619v-217.657229c0-75.132164 60.876486-136.036279 135.971811-136.036279h54.386678c0-7.515161 6.090718-13.605879 13.595646-13.605879v-3.680833c75.697029-57.8168 150.34517-113.620757 216.376049-154.672731 74.142627-46.101991 123.551944-1.016143 123.551944 76.30078v70.951958l-54.552453 54.577013c0.002047-33.354666 0.002047-62.537312 0.002046-85.256756z m-59.503209 645.662209c36.730553 20.446681 59.503209 1.326205 59.503209-48.482201V591.661318l54.552454-54.577013v309.641199c0 94.024443-48.800449 124.859729-124.017549 80.058361-49.564859-29.52443-103.786785-66.419735-159.146626-106.399286l46.206368-46.226834C431.603949 809.775964 474.674906 839.950194 506.720763 857.787444z m250.027474-345.409844c0-30.40652-14.294564-57.417711-36.473703-74.838476l38.634925-38.653345c31.961946 27.41028 52.227502 68.053955 52.227502 113.491821 0 73.337285-52.772924 134.2414-122.375142 147.048077V603.610464c39.303144-11.716856 67.986417-48.103578 67.986418-91.232864z m135.966694 0c0-67.982324-29.357632-129.015376-76.064396-171.260525l38.539758-38.558178c56.505945 52.148707 91.916433 126.821407 91.916433 209.818703 0 139.149177-99.485829 254.930133-231.148498 280.353153v-55.798841c101.365642-24.505114 176.756703-115.608018 176.756703-224.554312z" fill="#bfbfbf" p-id="3680"></path></svg>