<?xml version="1.0" standalone="no"?><!DOCTYPE svg PUBLIC "-//W3C//DTD SVG 1.1//EN" "http://www.w3.org/Graphics/SVG/1.1/DTD/svg11.dtd"><svg t="1768656913337" class="icon" viewBox="0 0 1479 1024" version="1.1" xmlns="http://www.w3.org/2000/svg" p-id="12482" xmlns:xlink="http://www.w3.org/1999/xlink" width="288.8671875" height="200"><path d="M1418.808889 128.568889a96.597333 96.597333 0 0 0-118.328889-68.266667 102.4 102.4 0 0 0-43.235556 25.031111l-523.377777 524.856889-133.12 133.233778a53.703111 53.703111 0 0 1-76.231111 0L391.395556 609.962667l-169.528889-170.666667a96.369778 96.369778 0 0 0-136.533334 0 93.866667 93.866667 0 0 0-25.031111 43.349333 99.100444 99.100444 0 0 0 23.893334 94.549334L395.946667 889.742222a219.249778 219.249778 0 0 0 309.475555 24.576c6.826667-6.144 13.653333-12.856889 20.48-19.911111l669.013334-671.288889a99.100444 99.100444 0 0 0 23.893333-94.549333z" fill="#ffffff" p-id="12483"></path></svg>